<?xml version="1.0" encoding="UTF-8" standalone="no"?>
<svg width="64px" height="64px" viewBox="0 0 64 64" version="1.1" xmlns="http://www.w3.org/2000/svg" xmlns:xlink="http://www.w3.org/1999/xlink">
    <!-- Generator: Sketch 3.7.2 (28276) - http://www.bohemiancoding.com/sketch -->
    <title>spa-launch</title>
    <desc>Created with Sketch.</desc>
    <defs></defs>
    <g id="64px-Line" stroke="none" stroke-width="1" fill="none" fill-rule="evenodd">
        <g id="spa-launch"></g>
        <path d="M21,32 L28.988,32 C28.992,32 28.996,32.002 29,32.002 L37,32.002 C37.004,32.002 37.008,32 37.012,32 L45,32 C45.552,32 46,31.553 46,31 L46,27 C46,26.732 45.893,26.477 45.703,26.289 L39.952,20.604 C39.98,20.072 40,19.537 40,19 C40,10.682 33.964,4.55 33.707,4.293 C33.316,3.902 32.684,3.902 32.293,4.293 C32.036,4.55 26,10.682 26,19.002 C26,19.539 26.02,20.073 26.048,20.604 L20.297,26.289 C20.107,26.477 20,26.732 20,27 L20,31 C20,31.553 20.448,32 21,32 L21,32 Z M44,27.418 L44,30 L38.344,30 C38.75,28.551 39.367,26.052 39.723,23.189 L44,27.418 L44,27.418 Z M33.001,6.502 C34.53,8.328 38,13.123 38,19 C38,23.608 36.765,28.286 36.261,30.002 L34,30.002 L34,21 C34,20.447 33.552,20 33,20 C32.448,20 32,20.447 32,21 L32,30.002 L29.739,30.002 C29.236,28.286 28,23.608 28,19.002 C28,13.141 31.473,8.333 33.001,6.502 L33.001,6.502 Z M22,27.418 L26.277,23.189 C26.632,26.052 27.249,28.551 27.656,30 L22,30 L22,27.418 L22,27.418 Z" id="Shape" fill="#02C8A7"></path>
        <path d="M40.25,46.002 C39.698,46.002 39.25,46.449 39.25,47.002 C39.25,47.555 39.698,48.002 40.25,48.002 C44.36,48.002 45.243,51.106 45.281,51.251 C45.397,51.702 45.803,52.002 46.249,52.002 C46.33,52.002 46.411,51.992 46.493,51.972 C47.029,51.838 47.354,51.295 47.221,50.76 C46.809,49.114 44.823,46.002 40.25,46.002 L40.25,46.002 Z" id="Shape" fill="#02C8A7"></path>
        <path d="M30.566,46.054 C28.288,45.295 26.665,46.374 25.817,47.643 C24.346,47.014 22.16,46.679 20.542,48.295 C18.061,50.776 19.301,53.341 19.354,53.449 C19.529,53.8 19.882,54.002 20.25,54.002 C20.4,54.002 20.553,53.968 20.696,53.897 C21.19,53.65 21.39,53.049 21.143,52.555 C21.136,52.541 20.482,51.183 21.955,49.709 C23.345,48.321 25.601,49.773 25.693,49.834 C25.952,50.007 26.277,50.048 26.572,49.948 C26.866,49.846 27.097,49.614 27.196,49.318 C27.265,49.108 27.938,47.285 29.931,47.95 C30.457,48.125 31.022,47.842 31.196,47.318 C31.374,46.794 31.09,46.228 30.566,46.054 L30.566,46.054 Z" id="Shape" fill="#02C8A7"></path>
        <path d="M52.878,44.045 C52.221,40.592 49.144,38 45.5,38 C44.451,38 43.421,38.224 42.471,38.644 C40.243,35.788 36.778,34 33,34 C28.398,34 24.32,36.669 22.315,40.568 C21.255,40.194 20.144,40 19,40 C14.176,40 10.101,43.412 9.192,48.061 C6.265,48.458 4,50.966 4,54 C4,57.309 6.691,60 10,60 L56,60 C59.309,60 62,57.309 62,54 C62,48.783 57.982,44.492 52.878,44.045 L52.878,44.045 Z M56,58 L10,58 C7.794,58 6,56.206 6,54 C6,51.8 7.784,50.012 9.981,50.002 C10.006,50.004 10.031,50.006 10.056,50.006 C10.058,50.006 10.059,50.005 10.061,50.005 C10.911,50.018 11.718,50.289 12.397,50.798 C12.84,51.13 13.466,51.04 13.797,50.599 C14.129,50.157 14.039,49.53 13.597,49.199 C12.886,48.665 12.077,48.317 11.223,48.141 C12.067,44.58 15.248,42 19,42 C19.883,42 20.74,42.141 21.56,42.419 C21.299,43.243 21.116,44.102 21.042,44.992 C20.996,45.543 21.405,46.026 21.956,46.071 C21.984,46.074 22.012,46.075 22.04,46.075 C22.555,46.075 22.992,45.68 23.036,45.158 C23.462,40.022 27.839,36 33,36 C37.483,36 41.447,39.014 42.64,43.328 C42.787,43.861 43.338,44.171 43.87,44.025 C44.402,43.878 44.714,43.327 44.567,42.795 C44.329,41.934 43.991,41.121 43.582,40.356 C44.193,40.128 44.84,40 45.5,40 C48.057,40 50.233,41.73 50.84,44.085 C50.251,44.153 49.667,44.256 49.1,44.428 C48.571,44.588 48.272,45.146 48.433,45.675 C48.593,46.203 49.153,46.503 49.68,46.342 C50.429,46.115 51.21,46 52,46 C56.411,46 60,49.589 60,54 C60,56.206 58.206,58 56,58 L56,58 Z" id="Shape" fill="#02C8A7"></path>
    </g>
</svg>
