<?xml version="1.0" encoding="UTF-8"?><svg version="1.1" viewBox="0 0 64 64" xmlns="http://www.w3.org/2000/svg" xmlns:xlink="http://www.w3.org/1999/xlink"><!--Generated by IJSVG (https://github.com/iconjar/IJSVG)--><g fill-rule="evenodd" fill="#02C8A7" stroke="none"><path d="M38.707,6.293c-0.391,-0.391 -1.023,-0.391 -1.414,0l-6,6.001c-0.391,0.391 -0.391,1.023 0,1.414l6,6c0.195,0.195 0.451,0.293 0.707,0.293c0.256,0 0.512,-0.098 0.707,-0.293c0.391,-0.391 0.391,-1.023 0,-1.414l-4.272,-4.272c10.826,0.234 19.565,9.097 19.565,19.978c0,0.77 -0.044,1.546 -0.131,2.308c-0.062,0.549 0.332,1.044 0.88,1.107c0.039,0.004 0.077,0.006 0.115,0.006c0.501,0 0.934,-0.376 0.992,-0.886c0.096,-0.837 0.144,-1.69 0.144,-2.535c0,-11.995 -9.651,-21.772 -21.595,-21.99l4.302,-4.303c0.391,-0.391 0.391,-1.024 0,-1.414v0Z"></path><path d="M20.668,50.257c-0.33,0.443 -0.238,1.069 0.205,1.399c3.816,2.842 8.356,4.344 13.127,4.344c7.688,0 14.794,-4.066 18.76,-10.53l1.264,5.71c0.104,0.466 0.517,0.784 0.976,0.784c0.072,0 0.145,-0.007 0.217,-0.023c0.539,-0.12 0.879,-0.653 0.76,-1.193l-1.814,-8.195c-0.059,-0.266 -0.225,-0.497 -0.458,-0.639c-0.234,-0.141 -0.515,-0.182 -0.778,-0.111l-8.196,2.196c-0.534,0.143 -0.85,0.691 -0.707,1.225c0.142,0.533 0.692,0.852 1.225,0.707l5.844,-1.566c-3.598,5.912 -10.079,9.635 -17.093,9.635c-4.338,0 -8.464,-1.365 -11.932,-3.948c-0.443,-0.33 -1.069,-0.238 -1.4,0.205v0Z"></path><path d="M25.268,13.802c-8.06,3.489 -13.268,11.417 -13.268,20.198c0,3.754 0.951,7.374 2.74,10.611l-5.47,-1.538c-0.534,-0.151 -1.084,0.161 -1.233,0.692c-0.149,0.532 0.161,1.084 0.692,1.233l7.813,2.196c0.089,0.025 0.18,0.037 0.271,0.037c0.172,0 0.343,-0.044 0.495,-0.131c0.232,-0.132 0.402,-0.352 0.471,-0.61l2.196,-8.196c0.143,-0.533 -0.173,-1.082 -0.707,-1.225c-0.534,-0.143 -1.082,0.174 -1.225,0.707l-1.566,5.844c-1.617,-2.934 -2.477,-6.216 -2.477,-9.62c0,-7.983 4.735,-15.191 12.062,-18.363c0.507,-0.219 0.74,-0.808 0.52,-1.315c-0.219,-0.508 -0.808,-0.74 -1.314,-0.52v0Z"></path></g></svg>