<?xml version="1.0" encoding="UTF-8"?><svg version="1.1" viewBox="0 0 64 64" xmlns="http://www.w3.org/2000/svg" xmlns:xlink="http://www.w3.org/1999/xlink"><!--Generated by IJSVG (https://github.com/iconjar/IJSVG)--><g fill-rule="evenodd" fill="#02C8A7" stroke="none"><path d="M16,42c0,-3.645 -1.963,-6 -5,-6c-3.037,0 -5,2.355 -5,6c0,3.645 1.963,6 5,6c3.037,0 5,-2.355 5,-6v0Zm-5,4c-2.708,0 -3,-2.797 -3,-4c0,-1.203 0.292,-4 3,-4c2.708,0 3,2.797 3,4c0,1.203 -0.292,4 -3,4v0Z"></path><path d="M3,58c0.553,0 1,-0.448 1,-1l-0.003,-1.924c0.338,-4.412 1.254,-5.076 7.003,-5.076c5.749,0 6.665,0.664 7,5v2c0,0.552 0.447,1 1,1c0.553,0 1,-0.448 1,-1l-0.003,-2.076c-0.449,-5.878 -2.748,-6.924 -8.997,-6.924c-6.249,0 -8.548,1.046 -9,7v2c0,0.552 0.447,1 1,1v0Z"></path><path d="M3,29.982c0.553,0 1,-0.448 1,-1l-0.003,-1.924c0.338,-4.412 1.254,-5.076 7.003,-5.076c1.992,0 3.236,0.094 4.161,0.314c0.539,0.128 1.076,-0.203 1.204,-0.741c0.128,-0.537 -0.204,-1.076 -0.741,-1.204c-1.055,-0.251 -2.4,-0.362 -4.459,-0.368c2.939,-0.087 4.835,-2.407 4.835,-5.983c0,-3.645 -1.963,-6 -5,-6c-3.037,0 -5,2.355 -5,6c0,3.579 1.899,5.901 4.842,5.984c-6.126,0.018 -8.394,1.096 -8.842,6.998v2c0,0.553 0.447,1 1,1v0Zm5,-15.982c0,-1.203 0.292,-4 3,-4c2.708,0 3,2.797 3,4c0,1.203 -0.292,4 -3,4c-2.708,0 -3,-2.797 -3,-4v0Z"></path><path d="M45.635,21.555c0.128,0.539 0.671,0.869 1.204,0.741c0.925,-0.22 2.169,-0.314 4.161,-0.314c5.749,0 6.665,0.664 7,5v2c0,0.552 0.447,1 1,1c0.553,0 1,-0.448 1,-1l-0.003,-2.076c-0.445,-5.826 -2.713,-6.904 -8.839,-6.922c2.943,-0.083 4.842,-2.405 4.842,-5.984c0,-3.645 -1.963,-6 -5,-6c-3.037,0 -5,2.355 -5,6c0,3.576 1.896,5.896 4.835,5.983c-2.059,0.006 -3.404,0.116 -4.459,0.368c-0.537,0.128 -0.869,0.667 -0.741,1.204v0Zm2.365,-7.555c0,-1.203 0.292,-4 3,-4c2.708,0 3,2.797 3,4c0,1.203 -0.292,4 -3,4c-2.708,0 -3,-2.797 -3,-4v0Z"></path><path d="M36,42c0,-3.645 -1.963,-6 -5,-6c-3.037,0 -5,2.355 -5,6c0,3.645 1.963,6 5,6c3.037,0 5,-2.355 5,-6v0Zm-5,4c-2.708,0 -3,-2.797 -3,-4c0,-1.203 0.292,-4 3,-4c2.708,0 3,2.797 3,4c0,1.203 -0.292,4 -3,4v0Z"></path><path d="M39,58c0.553,0 1,-0.448 1,-1l-0.003,-2.076c-0.449,-5.878 -2.748,-6.924 -8.997,-6.924c-6.249,0 -8.548,1.046 -9,7v2c0,0.552 0.447,1 1,1c0.553,0 1,-0.448 1,-1l-0.003,-1.924c0.338,-4.412 1.254,-5.076 7.003,-5.076c5.749,0 6.665,0.664 7,5v2c0,0.552 0.447,1 1,1v0Z"></path><path d="M56,42c0,-3.645 -1.963,-6 -5,-6c-3.037,0 -5,2.355 -5,6c0,3.645 1.963,6 5,6c3.037,0 5,-2.355 5,-6v0Zm-5,4c-2.708,0 -3,-2.797 -3,-4c0,-1.203 0.292,-4 3,-4c2.708,0 3,2.797 3,4c0,1.203 -0.292,4 -3,4v0Z"></path><path d="M59,58c0.553,0 1,-0.448 1,-1l-0.003,-2.076c-0.449,-5.878 -2.748,-6.924 -8.997,-6.924c-6.249,0 -8.548,1.046 -9,7v2c0,0.552 0.447,1 1,1c0.553,0 1,-0.448 1,-1l-0.003,-1.924c0.338,-4.412 1.254,-5.076 7.003,-5.076c5.749,0 6.665,0.664 7,5v2c0,0.552 0.447,1 1,1v0Z"></path><path d="M40.994,33.991c3.037,0 5,-2.355 5,-6c0,-3.645 -1.963,-6 -5,-6c-3.037,0 -5,2.355 -5,6c0,3.645 1.963,6 5,6v0Zm0,-10c2.708,0 3,2.797 3,4c0,1.203 -0.292,4 -3,4c-2.708,0 -3,-2.797 -3,-4c0,-1.203 0.292,-4 3,-4v0Z"></path><path d="M35.62,35.567c0.13,0.538 0.669,0.87 1.205,0.74c0.925,-0.222 2.171,-0.316 4.169,-0.316c2.003,0 3.252,0.095 4.177,0.318c0.079,0.019 0.157,0.028 0.235,0.028c0.451,0 0.861,-0.308 0.972,-0.766c0.129,-0.537 -0.201,-1.077 -0.738,-1.206c-1.088,-0.262 -2.477,-0.374 -4.646,-0.374c-2.163,0 -3.549,0.111 -4.634,0.371c-0.537,0.129 -0.869,0.668 -0.74,1.205v0Z"></path><path d="M21,33.991c3.037,0 5,-2.355 5,-6c0,-3.645 -1.963,-6 -5,-6c-3.037,0 -5,2.355 -5,6c0,3.645 1.963,6 5,6v0Zm0,-10c2.708,0 3,2.797 3,4c0,1.203 -0.292,4 -3,4c-2.708,0 -3,-2.797 -3,-4c0,-1.203 0.292,-4 3,-4v0Z"></path><path d="M25.394,36.337c0.451,0 0.861,-0.308 0.972,-0.766c0.129,-0.537 -0.201,-1.077 -0.738,-1.206c-1.088,-0.262 -2.477,-0.374 -4.646,-0.374c-2.162,0 -3.548,0.111 -4.634,0.371c-0.537,0.128 -0.868,0.668 -0.74,1.206c0.13,0.537 0.669,0.87 1.205,0.74c0.926,-0.222 2.172,-0.316 4.169,-0.316c2.003,0 3.252,0.095 4.177,0.318c0.078,0.018 0.156,0.027 0.235,0.027v0Z"></path><path d="M26.818,22.298c0.926,-0.222 2.172,-0.316 4.169,-0.316c2.002,0 3.252,0.095 4.178,0.318c0.079,0.019 0.158,0.028 0.235,0.028c0.451,0 0.861,-0.308 0.972,-0.766c0.129,-0.537 -0.202,-1.077 -0.738,-1.206c-1.058,-0.254 -2.405,-0.366 -4.47,-0.372c2.94,-0.087 4.836,-2.408 4.836,-5.984c0,-3.645 -1.963,-6 -5,-6c-3.037,0 -5,2.355 -5,6c0,3.575 1.895,5.896 4.834,5.983c-2.072,0.005 -3.421,0.116 -4.481,0.37c-0.537,0.128 -0.868,0.668 -0.74,1.206c0.13,0.536 0.67,0.869 1.205,0.739v0Zm1.182,-8.298c0,-1.203 0.292,-4 3,-4c2.708,0 3,2.797 3,4c0,1.203 -0.292,4 -3,4c-2.708,0 -3,-2.797 -3,-4v0Z"></path></g></svg>