<?xml version="1.0" encoding="UTF-8"?><svg version="1.1" viewBox="0 0 64 64" xmlns="http://www.w3.org/2000/svg" xmlns:xlink="http://www.w3.org/1999/xlink"><!--Generated by IJSVG (https://github.com/iconjar/IJSVG)--><path d="M7.954,34h24.558l-1.849,4h-13.464c-1.562,0 -2.98,0.935 -3.612,2.381c-0.015,0.034 -0.027,0.068 -0.038,0.103l-1.23,3.951c-0.521,1.241 -0.395,2.647 0.342,3.774c0.733,1.121 1.964,1.79 3.293,1.79h5.428l-3.276,6.553c-0.203,0.406 -0.107,0.897 0.233,1.197c0.187,0.167 0.424,0.251 0.661,0.251c0.193,0 0.386,-0.056 0.555,-0.168l11.748,-7.832h19.499c1.562,0 2.98,-0.935 3.612,-2.381c0.015,-0.034 0.027,-0.068 0.038,-0.103l1.23,-3.951c0.521,-1.241 0.395,-2.647 -0.342,-3.774c-0.733,-1.121 -1.964,-1.79 -3.293,-1.79h-15.181l1.849,-4h4.086c1.562,0 2.98,-0.935 3.612,-2.381c0.015,-0.034 0.027,-0.068 0.038,-0.103l1.23,-3.951c0.521,-1.241 0.395,-2.647 -0.342,-3.774c-0.733,-1.121 -1.964,-1.79 -3.293,-1.79h-19.181l1.849,-4h26.086c1.562,0 2.98,-0.935 3.612,-2.381c0.015,-0.034 0.027,-0.068 0.038,-0.103l1.23,-3.951c0.521,-1.241 0.395,-2.647 -0.342,-3.774c-0.733,-1.121 -1.964,-1.79 -3.293,-1.79h-34.848c-1.562,0 -2.98,0.935 -3.612,2.381c-0.015,0.034 -0.027,0.068 -0.038,0.103l-1.23,3.951c-0.521,1.241 -0.395,2.647 0.342,3.774c0.733,1.121 1.964,1.79 3.293,1.79h2.558l-1.849,4h-9.464c-1.562,0 -2.98,0.935 -3.612,2.381c-0.015,0.034 -0.027,0.068 -0.038,0.103l-1.23,3.951c-0.521,1.241 -0.395,2.647 0.342,3.774c0.735,1.12 1.966,1.789 3.295,1.789v0Zm-1.78,-4.818c0.015,-0.034 0.027,-0.068 0.038,-0.103l1.228,-3.942c0.322,-0.692 1.008,-1.137 1.759,-1.137h8.539l-0.268,0.581c-0.232,0.501 -0.013,1.095 0.488,1.327c0.136,0.063 0.278,0.092 0.419,0.092c0.377,0 0.739,-0.215 0.908,-0.581l4.623,-10c0.232,-0.501 0.013,-1.095 -0.488,-1.327c-0.5,-0.231 -1.095,-0.013 -1.327,0.488l-0.657,1.42h-3.483c-0.661,0 -1.251,-0.323 -1.619,-0.885c-0.377,-0.577 -0.438,-1.299 -0.16,-1.933c0.015,-0.034 0.027,-0.068 0.038,-0.103l1.228,-3.942c0.322,-0.692 1.008,-1.137 1.759,-1.137h34.848c0.661,0 1.251,0.323 1.619,0.885c0.377,0.577 0.438,1.299 0.16,1.933c-0.015,0.034 -0.027,0.068 -0.038,0.103l-1.228,3.942c-0.322,0.692 -1.008,1.137 -1.759,1.137h-25.162l0.268,-0.581c0.232,-0.501 0.013,-1.095 -0.488,-1.327c-0.5,-0.231 -1.095,-0.013 -1.327,0.488l-0.938,2.028c-0.001,0.001 -0.001,0.003 -0.002,0.004l-3.683,7.968c-0.232,0.501 -0.013,1.095 0.488,1.327c0.136,0.063 0.278,0.092 0.419,0.092c0.377,0 0.739,-0.215 0.908,-0.581l0.657,-1.418h20.105c0.661,0 1.251,0.323 1.619,0.885c0.377,0.577 0.438,1.299 0.16,1.933c-0.015,0.034 -0.027,0.068 -0.038,0.103l-1.228,3.942c-0.322,0.692 -1.008,1.137 -1.759,1.137h-3.162l0.268,-0.581c0.232,-0.501 0.013,-1.095 -0.488,-1.327c-0.5,-0.231 -1.095,-0.014 -1.327,0.488l-0.938,2.028c-0.001,0.001 -0.001,0.003 -0.002,0.004l-3.683,7.968c-0.232,0.501 -0.013,1.095 0.488,1.327c0.136,0.063 0.278,0.092 0.419,0.092c0.377,0 0.739,-0.215 0.908,-0.581l0.658,-1.418h16.105c0.661,0 1.251,0.323 1.619,0.885c0.377,0.577 0.438,1.299 0.16,1.933c-0.015,0.034 -0.027,0.068 -0.038,0.103l-1.228,3.942c-0.322,0.692 -1.008,1.137 -1.759,1.137h-19.8c-0.197,0 -0.391,0.059 -0.555,0.168l-8.867,5.912l2.316,-4.632c0.155,-0.31 0.138,-0.678 -0.044,-0.973c-0.182,-0.295 -0.504,-0.475 -0.85,-0.475h-7.046c-0.661,0 -1.251,-0.323 -1.619,-0.885c-0.377,-0.577 -0.438,-1.299 -0.16,-1.933c0.015,-0.034 0.027,-0.068 0.038,-0.103l1.228,-3.942c0.322,-0.692 1.008,-1.137 1.759,-1.137h12.539l-0.268,0.581c-0.232,0.501 -0.013,1.095 0.488,1.327c0.136,0.063 0.278,0.092 0.419,0.092c0.377,0 0.739,-0.215 0.908,-0.581l4.623,-10c0.232,-0.501 0.013,-1.095 -0.488,-1.327c-0.5,-0.231 -1.095,-0.014 -1.327,0.488l-0.658,1.42h-25.483c-0.661,0 -1.251,-0.323 -1.619,-0.885c-0.377,-0.577 -0.437,-1.299 -0.16,-1.933v0Z" fill-rule="evenodd" fill="#31b0d4" stroke="none"></path></svg>