<?xml version="1.0" encoding="UTF-8"?><svg version="1.1" viewBox="0 0 64 64" xmlns="http://www.w3.org/2000/svg" xmlns:xlink="http://www.w3.org/1999/xlink"><!--Generated by IJSVG (https://github.com/iconjar/IJSVG)--><g fill-rule="evenodd" fill="#02C8A7" stroke="none"><path d="M8,48h7c0.551,0 1,0.448 1,1v8c0,0.396 0.233,0.754 0.595,0.914c0.13,0.058 0.268,0.086 0.405,0.086c0.244,0 0.485,-0.09 0.673,-0.26l10.142,-9.22c0.369,-0.336 0.847,-0.521 1.345,-0.521h24.84c2.206,0 4,-1.794 4,-4v-34c0,-2.206 -1.794,-4 -4,-4h-46c-2.206,0 -4,1.794 -4,4v34c0,2.207 1.794,4.001 4,4.001v0Zm-2,-38c0,-1.103 0.897,-2 2,-2h46c1.103,0 2,0.897 2,2v34c0,1.103 -0.897,2 -2,2h-24.84c-0.997,0 -1.953,0.369 -2.691,1.04l-8.469,7.699v-5.739c0,-1.654 -1.346,-3 -3,-3h-7c-1.103,0 -2,-0.897 -2,-2v-34v0Z"></path><path d="M36.306,37.719c0.194,0.188 0.445,0.281 0.695,0.281c0.261,0 0.521,-0.102 0.717,-0.304c0.175,-0.18 4.282,-4.487 4.282,-10.696c0,-6.209 -4.107,-10.516 -4.282,-10.696c-0.384,-0.396 -1.016,-0.405 -1.412,-0.022c-0.396,0.384 -0.407,1.017 -0.025,1.413c0.037,0.039 3.719,3.927 3.719,9.306c0,5.379 -3.682,9.267 -3.719,9.306c-0.383,0.395 -0.372,1.028 0.025,1.412v0Z"></path><path d="M27,24c1.654,0 3,-1.346 3,-3c0,-1.654 -1.346,-3 -3,-3c-1.654,0 -3,1.346 -3,3c0,1.654 1.346,3 3,3v0Zm0,-4c0.551,0 1,0.448 1,1c0,0.552 -0.449,1 -1,1c-0.551,0 -1,-0.448 -1,-1c0,-0.552 0.449,-1 1,-1v0Z"></path><path d="M27,36c1.654,0 3,-1.346 3,-3c0,-1.654 -1.346,-3 -3,-3c-1.654,0 -3,1.346 -3,3c0,1.654 1.346,3 3,3v0Zm0,-4c0.551,0 1,0.448 1,1c0,0.552 -0.449,1 -1,1c-0.551,0 -1,-0.448 -1,-1c0,-0.552 0.449,-1 1,-1v0Z"></path></g></svg>