<?xml version="1.0" encoding="utf-8"?>
<!-- Generator: Adobe Illustrator 18.0.0, SVG Export Plug-In . SVG Version: 6.00 Build 0)  -->
<!DOCTYPE svg PUBLIC "-//W3C//DTD SVG 1.1//EN" "http://www.w3.org/Graphics/SVG/1.1/DTD/svg11.dtd">
<svg version="1.1" id="Layer_1" xmlns="http://www.w3.org/2000/svg" xmlns:xlink="http://www.w3.org/1999/xlink" x="0px" y="0px"
	 viewBox="0 0 512 512" enable-background="new 0 0 512 512" xml:space="preserve">
<g>
	<circle fill="#84DBFF" cx="256" cy="256" r="252.5"/>
	<g>
		<g>
			<path fill="#2B3B4E" d="M270.7,399.2c-29.1,3.2-58.1,3.2-87.2,0c5.5-16.8,5.5-33.6,0-50.3c29.1-3.2,58.1-3.2,87.2,0
				C265.1,365.7,265.1,382.5,270.7,399.2z"/>
			<g>
				<path fill="#324A5E" d="M341.3,170H112.9c-2.5,0-4.6,2-4.6,4.6v177.9c0,2.5,2,4.6,4.6,4.6h228.4c2.5,0,4.6-2,4.6-4.6V174.6
					C345.9,172,343.8,170,341.3,170z"/>
				<rect x="126.8" y="188.5" fill="#FFFFFF" width="200.6" height="118.4"/>
			</g>
			<rect x="155.5" y="391" fill="#324A5E" width="143.1" height="23.1"/>
		</g>
		<path fill="#FF7058" d="M388.1,121.7H260c-8.6,0-15.6,7-15.6,15.6v74.9c0,8.6,7,15.6,15.6,15.6h3l-9.1,35.6l51.9-35.6h82.3
			c8.6,0,15.6-7,15.6-15.6v-74.9C403.7,128.7,396.7,121.7,388.1,121.7z"/>
		<g>
			<circle fill="#E6E9EE" cx="283.7" cy="175.1" r="12.1"/>
			<circle fill="#E6E9EE" cx="324.1" cy="175.1" r="12.1"/>
			<circle fill="#E6E9EE" cx="364.4" cy="175.1" r="12.1"/>
		</g>
	</g>
</g>
</svg>
