<?xml version="1.0" encoding="utf-8"?>
<!-- Generator: Adobe Illustrator 18.0.0, SVG Export Plug-In . SVG Version: 6.00 Build 0)  -->
<!DOCTYPE svg PUBLIC "-//W3C//DTD SVG 1.1//EN" "http://www.w3.org/Graphics/SVG/1.1/DTD/svg11.dtd">
<svg version="1.1" id="Layer_1" xmlns="http://www.w3.org/2000/svg" xmlns:xlink="http://www.w3.org/1999/xlink" x="0px" y="0px"
	 viewBox="0 0 128 128" enable-background="new 0 0 128 128" xml:space="preserve">
<g>
	<circle fill="transparent" cx="64" cy="64" r="63.5"/>
	<g>
		<circle fill="#324A5E" cx="64" cy="64" r="31.8"/>
		<g>
			<path fill="#02C8A7" d="M95.3,65.7c0.2,0,0.3,0.1,0.5,0.1C95,79.5,85.6,90.8,73,94.5c0-0.1,0.1-0.3,0.1-0.4
				c0-0.8-0.4-1.6-1.1-2.1c-0.7-0.5-1.8-0.8-2.1-1.7c-0.4-1.1,0.6-2.1,1-3.1c0.5-1.2,0-2.8-1.1-3.5c-0.6-0.4-1.3-0.6-1.5-1.3
				c-0.3-0.8,0.4-1.6,0.4-2.4c0-0.8-0.6-1.5-1.3-1.9c-1.4-0.7-3.1-0.5-4.6-0.1c-1.5,0.4-3.1,1-4.6,0.8c-2.1-0.2-3.9-1.7-4.8-3.6
				c-1-1.9-1.3-4-1.3-6.1c0-0.9,0-1.9,0.4-2.7c0.2-0.5,0.5-1,0.9-1.5c3.2-4.5,9-6.9,14.5-6.2c0.3,0,0.7,0.1,1,0.3
				c0.3,0.2,0.4,0.6,0.6,0.9c0.5,0.8,1.5,1.3,2.5,1.3c1,0.1,2-0.1,2.9-0.3c1.8-0.4,3.6-0.7,5.4-1.1c0.2,0,0.4-0.1,0.6-0.2
				c0.2-0.2,0.2-0.5,0.3-0.7c0.2-1.1,0.2-2.6-0.9-3c-0.5-0.2-1.1,0-1.7,0.2c-0.5,0.2-1.1,0.4-1.7,0.3c-0.6-0.1-1-0.8-0.8-1.3
				c0.1-0.2,0.4-0.4,0.6-0.5c1.3-0.6,2.6-1.1,4-1.3c0.4-0.1,0.9-0.2,1.1-0.5c0.4-0.6-0.3-1.4-1-1.9c-0.8-0.5-1.6-0.9-2.4-1.1
				c-0.9-0.2-1.9,0.1-2.4,0.8c-0.8,1.2,0,3.1-1,4.2c-0.9,1-2.7,0.4-3.7-0.6c-1-1-1.7-2.3-3-2.9c-0.8,0.4-0.7,1.6-0.1,2.2
				c0.6,0.6,1.4,0.9,2.2,1.3c0.2,0.1,0.5,0.2,0.6,0.5c0.4,0.6-0.4,1.5-1.1,1.4c-0.8-0.1-1.3-0.7-1.8-1.3c-0.1-0.2-0.2-0.3-0.3-0.5
				c-1.1-1.6-3.5-1.7-4.6-0.1c-0.4,0.5-0.7,1.2-1.1,1.7c-0.6,0.8-1.7,1.3-2.7,1.3c-1,0-2-0.7-2.3-1.7c-0.3-1,0.3-2.2,1.2-2.5
				c0.6-0.2,1.4-0.1,2-0.1c0.7,0,1.5-0.5,1.5-1.2c0-0.7-1.3-2.5,0.2-2.6c1.2-0.1,2.7-0.4,3.1-1.5c0.1-0.3,0.2-0.6,0.4-0.8
				c0.2-0.2,0.4-0.2,0.6-0.2c0.9-0.1,1.7,0.1,2.6,0c0.9-0.1,1.8-0.5,2.1-1.3c0.6-1.7-1.7-3.4-1.1-5.1c-1.3,0.7-1.9,2.5-1.2,3.8
				c0.2,0.4,0.5,0.8,0.4,1.2c-0.1,0.6-1,0.8-1.4,0.4c-0.5-0.4-0.6-1.1-0.5-1.6c-0.6,0.4-1.4,0.1-1.8-0.5c-0.4-0.6-0.3-1.4,0.1-1.9
				c0.6-0.8,1.7-1.1,2.2-1.9c0.2-0.3,0.3-0.7,0.5-1c0.5-0.8,1.5-1.1,2.4-1c0.9,0.1,1.7,0.6,2.6,1c0.1,0.4-0.1,0.8-0.5,0.9
				c0.7,0.7,1.9,0,2.3-0.9c0.3-0.7,0.2-1.4,0-2.1c-0.4-1-1.3-1.6-2-2.4c-0.4-0.5-0.8-1.2-0.8-1.8C85.3,36.6,95.3,48.6,95.8,63
				c-0.5-1.6-1.3-3.1-2.3-4.5c-0.4-0.5-1.1-1.1-1.6-0.7c-0.2,0.1-0.3,0.3-0.3,0.5c-0.5,1.1-0.2,2.5-0.2,3.7c0,2.1-1.1,4.2-2.7,5.5
				c-0.4,0.4-1,0.7-1.6,0.5c-0.7-0.2-0.9-1.1-1.1-1.8c-0.4-1.2-1-2.4-1.9-3.3c-1.1-1.2-3.1-0.2-2.9,1.3c0,0,0,0,0,0
				c0.2,1,0.7,2,1.3,2.9c0.9,1.3,1.9,2.7,3.4,3.3c1.6,0.7,3.9-0.1,4.2-1.8c0.5,0.6,0.4,1.4,0.1,2c-0.3,0.6-0.8,1.2-1.3,1.7
				c-1.4,1.7-2.3,3.8-2.5,6c-0.3-0.2-0.7-0.3-0.9,0c-0.2,0.3-0.2,0.6-0.3,0.9c-0.1,0.6-0.2,1.3-0.3,1.9c-0.1,0.5-0.1,1,0,1.5
				c0.1,0.5,0.5,0.9,1,1c0.9,0.2,1.5-0.9,1.8-1.8c0.9-2.5,1.9-5,3.2-7.5c0.9-1.7,1.8-3.4,2.1-5.3c0.1-0.7,0.1-1.4,0.4-2.1
				C93.7,66.3,94.4,65.6,95.3,65.7z"/>
			<path fill="#02C8A7" d="M47.7,38.6c0.4,0.3,0.5,0.9,0.2,1.3c-0.2,0.2-0.5,0.3-0.7,0.5c-0.2,0.2-0.3,0.6,0,0.7
				c-0.4,1.5-1.3,2.9-2.5,3.8c0.1,0.5,0.3,1.1,0.1,1.5c-0.2,0.5-0.7,0.9-1.2,0.7c0.4-1.2,0.8-2.7-0.2-3.6c-0.8,0.7-1,1.9-1.1,3
				c0,0.3-0.1,0.7-0.4,0.9c-0.6,0.4-1.3-0.6-2-0.8c-0.7-0.2-1.3,0.4-1.7,0.9c-0.4,0.6-0.7,1.3-1.3,1.7c-0.3,0.2-0.7,0.3-1.1,0.2
				c2.2-4.2,5.2-7.8,8.9-10.7c-0.5,0.6-0.8,1.2-1.1,1.9C45.2,41.2,47.1,40.2,47.7,38.6z"/>
			<path fill="#02C8A7" d="M70,32.8c-0.1,0.1-0.1,0.1-0.2,0.2c-1.1,1.3-2.8,2-4.5,2.1c-1.3,0-2.8-0.3-3.8,0.6
				c-0.7,0.6-0.9,1.7-1.6,2.3c-0.9,0.9-2.4,0.8-3.7,1.2c-2.1,0.5-3.8,2.2-5.8,3c-0.2-1,0.3-2.1,1-2.8c0.8-0.7,1.8-1.1,2.8-1.3
				c0.6-0.1,1.2-0.1,1.6-0.4c0.9-0.6,1.1-1.8,1.1-2.9c0-0.1,0-0.3-0.1-0.4c-0.1-0.1-0.3-0.2-0.4-0.2c-0.9-0.2-2.2-0.3-2.7,0.5
				c-0.4,0.8,0.2,1.8-0.3,2.5c-0.2,0.3-0.5,0.4-0.9,0.6c-0.8,0.4-1.7,0.7-2.5,1.1c-0.3,0.1-0.7,0.2-0.9,0c-0.2-0.3,0-0.7,0-1
				c0-0.6-0.6-1.2-1.2-1.2c-0.1,0-0.2,0-0.3,0c4.7-2.8,10.3-4.4,16.2-4.4C66,32.2,68,32.4,70,32.8z"/>
			<path fill="#02C8A7" d="M42.3,84c0.4,0.7-0.4,1.7-1.3,1.7c-0.1,0-0.2,0-0.3,0C35.5,80,32.2,72.4,32.2,64c0-1.1,0.1-2.2,0.2-3.3
				c0.1,0.2,0.2,0.4,0.2,0.5c0.1,0.6,0.1,1.2,0.1,1.8c0,3,1.2,5.9,2.4,8.7c0.6,1.5,1.3,3.1,2.4,4.4c1.1,1.2,2.6,2.1,4.1,2.7
				c0.3,0.1,0.7,0.3,0.9,0.5c0.3,0.3,0.3,0.7,0.3,1.1c0.1,0.7,0.1,1.6-0.4,2c-0.2,0.2-0.5,0.3-0.6,0.6C41.7,83.4,42.1,83.7,42.3,84z
				"/>
		</g>
		<path fill="#FF7058" d="M64.9,75.4l-14.3,0.7c-3-5.9-9.1-10-16.2-10c-10,0-18.2,8.1-18.2,18.2c0,10,8.1,18.2,18.2,18.2
			c9.7,0,17.6-7.6,18.1-17.2L64.9,75.4z"/>
		<circle fill="#F9BE02" cx="85.7" cy="40.8" r="18.2"/>
		<circle fill="#FFFFFF" cx="85.7" cy="40.8" r="15.2"/>
		<path fill="#54C0EB" d="M95.6,47.8C93.7,51.3,90,52,85.7,52c-4.3,0-8-0.7-9.9-4.2c1.6-2.9,4.4-5.1,7.8-5.7l2.1,2.7l2.1-2.7
			C91.2,42.7,94,44.9,95.6,47.8z"/>
		<path fill="#E6E9EE" d="M90.4,34.2c0,2.6-2.1,6-4.7,6c-2.6,0-4.7-3.4-4.7-6c0-2.6,2.1-4.7,4.7-4.7C88.3,29.5,90.4,31.6,90.4,34.2z
			"/>
		<path fill="#54C0EB" d="M90.4,34.2c0,0.2,0,0.3,0,0.5c-1.4-0.1-2.6-0.9-3.2-2.1c-0.8,1.8-2.6,3.1-4.8,3.1c-0.4,0-0.8,0-1.2-0.1
			c-0.1-0.5-0.2-1-0.2-1.4c0-2.6,2.1-4.7,4.7-4.7C88.3,29.5,90.4,31.6,90.4,34.2z"/>
		<polygon fill="#F9BE02" points="75.2,54.8 62,61.8 69.7,46.1 		"/>
		<circle fill="#FFFFFF" cx="34.3" cy="84.3" r="15.2"/>
		<path fill="#54C0EB" d="M44.2,91.3c-1.9,3.5-5.6,4.2-9.9,4.2c-4.3,0-8-0.7-9.9-4.2c1.6-2.9,4.4-5.1,7.8-5.7l2.1,2.7l2.1-2.7
			C39.8,86.2,42.6,88.4,44.2,91.3z"/>
		<path fill="#E6E9EE" d="M39,77.8c0,2.6-2.1,6-4.7,6s-4.7-3.4-4.7-6c0-2.6,2.1-4.7,4.7-4.7S39,75.2,39,77.8z"/>
		<path fill="#54C0EB" d="M39,77.8c0,0.2,0,0.3,0,0.5c-1.4-0.1-2.6-0.9-3.2-2.1C35,78,33.1,79.3,31,79.3c-0.4,0-0.8,0-1.2-0.1
			c-0.1-0.5-0.2-1-0.2-1.4c0-2.6,2.1-4.7,4.7-4.7S39,75.2,39,77.8z"/>
	</g>
</g>
</svg>
