<?xml version="1.0" encoding="utf-8"?>
<!-- Generator: Adobe Illustrator 19.0.0, SVG Export Plug-In . SVG Version: 6.00 Build 0)  -->
<svg version="1.1" id="Layer_1" xmlns="http://www.w3.org/2000/svg" xmlns:xlink="http://www.w3.org/1999/xlink" x="0px" y="0px"
	 viewBox="0 0 1000 1000" style="enable-background:new 0 0 1000 1000;" xml:space="preserve">
<style type="text/css">
	.st0{opacity:0.70;}
	.st1{fill:#37BBA1;}
	.st2{fill:#31B0D4;}
</style>
<g id="XMLID_2_" class="st0">
	<g id="XMLID_34_">
		<path id="XMLID_38_" class="st1" d="M163.4,406.3c68.1,73.4,136.2,146.9,204.3,220.3c19.4,20.9,38.8,41.8,58.2,62.7
			c9.5,10.2,20.8,17.5,33.8,21.7c12.5,6.6,26,9.6,40.5,9c14.5,0.5,27.9-2.5,40.5-9c13-4.2,24.3-11.5,33.8-21.7
			c5.5-7.1,10.9-14.2,16.4-21.3c9.5-16.4,14.3-34,14.3-53c-1.3-9.3-2.5-18.6-3.8-27.9c-5-17.8-14-33.2-27-46.3
			C506.2,467.5,438.1,394,370,320.6c-19.4-20.9-38.8-41.8-58.2-62.7c-9.5-10.2-20.8-17.5-33.8-21.7c-12.5-6.6-26-9.6-40.5-9
			c-14.5-0.5-27.9,2.5-40.5,9c-13,4.2-24.3,11.5-33.8,21.7c-5.5,7.1-10.9,14.2-16.4,21.3c-9.5,16.4-14.3,34-14.3,53
			c1.3,9.3,2.5,18.6,3.8,27.9C141.3,377.8,150.3,393.2,163.4,406.3L163.4,406.3z"/>
	</g>
</g>
<g id="XMLID_5_" class="st0">
	<g id="XMLID_29_">
		<path id="XMLID_33_" class="st2" d="M688.3,257.9C620.2,331.3,552.1,404.7,484,478.2c-19.4,20.9-38.8,41.8-58.2,62.7
			c-10.2,9.5-17.5,20.8-21.7,33.8c-6.6,12.5-9.6,26-9,40.5c-0.5,14.5,2.5,27.9,9,40.5c4.2,13,11.5,24.3,21.7,33.8
			c7.1,5.5,14.2,10.9,21.3,16.4c16.4,9.5,34,14.3,53,14.3c9.3-1.3,18.6-2.5,27.9-3.8c17.8-5,33.2-14,46.3-27
			c68.1-73.4,136.2-146.9,204.3-220.3c19.4-20.9,38.8-41.8,58.2-62.7c10.2-9.5,17.5-20.8,21.7-33.8c6.6-12.5,9.6-26,9-40.5
			c0.5-14.5-2.5-27.9-9-40.5c-4.2-13-11.5-24.3-21.7-33.8c-7.1-5.5-14.2-10.9-21.3-16.4c-16.4-9.5-34-14.3-53-14.3
			c-9.3,1.3-18.6,2.5-27.9,3.8C716.9,235.8,701.4,244.8,688.3,257.9L688.3,257.9z"/>
	</g>
</g>
<g id="XMLID_1_" class="st0">
	<g id="XMLID_22_">
		<path id="XMLID_26_" class="st1" d="M342.6,674.1c0-88.7,0-177.3,0-266c0-25.3,0-50.7,0-76c0.5-14.5-2.5-27.9-9-40.5
			c-4.2-13-11.5-24.3-21.7-33.8c-9.5-10.2-20.8-17.5-33.8-21.7c-12.5-6.6-26-9.6-40.5-9c-9.3,1.3-18.6,2.5-27.9,3.8
			c-17.8,5-33.2,14-46.3,27c-5.5,7.1-10.9,14.2-16.4,21.3c-9.5,16.4-14.3,34-14.3,53c0,88.7,0,177.3,0,266c0,25.3,0,50.7,0,76
			c-0.5,14.5,2.5,27.9,9,40.5c4.2,13,11.5,24.3,21.7,33.8c9.5,10.2,20.8,17.5,33.8,21.7c12.5,6.6,26,9.6,40.5,9
			c9.3-1.3,18.6-2.5,27.9-3.8c17.8-5,33.2-14,46.3-27c5.5-7.1,10.9-14.2,16.4-21.3C337.8,710.7,342.5,693,342.6,674.1L342.6,674.1z"
			/>
	</g>
</g>
<g id="XMLID_4_" class="st0">
	<g id="XMLID_18_">
		<path id="XMLID_27_" class="st2" d="M867.6,674.1c0-88.7,0-177.3,0-266c0-25.3,0-50.7,0-76c0.5-14.5-2.5-27.9-9-40.5
			c-4.2-13-11.5-24.3-21.7-33.8c-9.5-10.2-20.8-17.5-33.8-21.7c-12.5-6.6-26-9.6-40.5-9c-9.3,1.3-18.6,2.5-27.9,3.8
			c-17.8,5-33.2,14-46.3,27c-5.5,7.1-10.9,14.2-16.4,21.3c-9.5,16.4-14.3,34-14.3,53c0,88.7,0,177.3,0,266c0,25.3,0,50.7,0,76
			c-0.5,14.5,2.5,27.9,9,40.5c4.2,13,11.5,24.3,21.7,33.8c9.5,10.2,20.8,17.5,33.8,21.7c12.5,6.6,26,9.6,40.5,9
			c9.3-1.3,18.6-2.5,27.9-3.8c17.8-5,33.2-14,46.3-27c5.5-7.1,10.9-14.2,16.4-21.3C862.8,710.7,867.5,693,867.6,674.1L867.6,674.1z"
			/>
	</g>
</g>
</svg>
