<?xml version="1.0" encoding="utf-8"?>
<!-- Generator: Adobe Illustrator 18.0.0, SVG Export Plug-In . SVG Version: 6.00 Build 0)  -->
<!DOCTYPE svg PUBLIC "-//W3C//DTD SVG 1.1//EN" "http://www.w3.org/Graphics/SVG/1.1/DTD/svg11.dtd">
<svg version="1.1" id="Layer_1" xmlns="http://www.w3.org/2000/svg" xmlns:xlink="http://www.w3.org/1999/xlink" x="0px" y="0px"
	 viewBox="0 0 512 512" enable-background="new 0 0 512 512" xml:space="preserve">
<g>
	<circle fill="transparent" cx="256" cy="256" r="252.5"/>
	<path fill="transparent" d="M41.6,389.3C86.1,460.8,165.5,508.5,256,508.5c90.5,0,169.9-47.7,214.4-119.2H41.6z"/>
	<path fill="#324A5E" d="M392.9,124.6H119.1c-7,0-12.6,5.6-12.6,12.6v196.5c0,7,5.6,12.6,12.6,12.6h273.8c7,0,12.6-5.6,12.6-12.6
		V137.2C405.5,130.3,399.9,124.6,392.9,124.6z"/>
	<rect x="123.4" y="142.1" fill="#FFFFFF" width="265.2" height="186.8"/>
	<path fill="#2B3B4E" d="M74.9,365.8l3.8,12.3c2.2,7.1,8.8,12,16.2,12h322.2c7.5,0,14-4.9,16.2-12l3.8-12.3c0.9-2.9-1.3-5.9-4.3-5.9
		H79.2C76.2,359.9,74,362.9,74.9,365.8z"/>
	<g>
		<polygon fill="#324A5E" points="278.6,270.6 232.7,210.6 175.4,267.9 170.6,263.1 233.3,200.4 279.3,260.4 336.6,203.1
			341.4,207.9 		"/>
		<circle fill="#FFD05B" cx="173" cy="265.5" r="17.7"/>
		<circle fill="#FF7058" cx="233" cy="205.5" r="17.7"/>
		<circle fill="#84DBFF" cx="279" cy="265.5" r="17.7"/>
		<circle fill="#4CDBC4" cx="339" cy="205.5" r="17.7"/>
	</g>
	<polygon fill="#ACB3BA" points="305.6,360.2 206.4,360.2 217.9,373.2 294.1,373.2 	"/>
</g>
</svg>
