<?xml version="1.0" encoding="utf-8"?>
<!-- Generator: Adobe Illustrator 18.0.0, SVG Export Plug-In . SVG Version: 6.00 Build 0)  -->
<!DOCTYPE svg PUBLIC "-//W3C//DTD SVG 1.1//EN" "http://www.w3.org/Graphics/SVG/1.1/DTD/svg11.dtd">
<svg version="1.1" id="Layer_1" xmlns="http://www.w3.org/2000/svg" xmlns:xlink="http://www.w3.org/1999/xlink" x="0px" y="0px"
	 viewBox="0 0 512 512" enable-background="new 0 0 512 512" xml:space="preserve">
<g>
	<circle fill="transparent" cx="256" cy="256" r="252.5"/>
	<g>
		<path fill="#FFFFFF" d="M160.4,183.1v100.7c114.5,5.5,148.6,53.9,148.6,53.9V129.2C309,129.2,274.9,177.6,160.4,183.1z"/>
		<path fill="#F53240" d="M320.2,117.1c-6.2,0-11.2,5-11.2,11.2v211.2c0,6.2,5,11.2,11.2,11.2s11.2-5,11.2-11.2V128.3
			C331.4,122.1,326.3,117.1,320.2,117.1z"/>
		<path fill="#F53240" d="M81.8,283.8h78.6V183.2H81.8c-2.4,0-4.4,2-4.4,4.4v91.9C77.4,281.9,79.4,283.8,81.8,283.8z"/>
		<g>
			<g>
				<path fill="#FFFFFF" d="M349.5,318.9v-15.8c38.2,0,69.3-31.1,69.3-69.3c0-38.2-31.1-69.3-69.3-69.3v-15.8c46.9,0,85,38.2,85,85
					C434.6,280.8,396.4,318.9,349.5,318.9z"/>
			</g>
			<g>
				<path fill="#FFFFFF" d="M349.5,280.7v-15.8c17.1,0,31.1-13.9,31.1-31.1c0-17.1-13.9-31.1-31.1-31.1V187
					c25.8,0,46.9,21,46.9,46.9C396.4,259.7,375.4,280.7,349.5,280.7z"/>
			</g>
		</g>
		<path fill="#324A5E" d="M171.6,386.4l-26-102.6H103l26.8,105.9c0.8,3,3.5,5.1,6.6,5.1H165C169.4,394.9,172.7,390.7,171.6,386.4z"
			/>
	</g>
</g>
</svg>
