<?xml version="1.0" encoding="UTF-8"?><svg version="1.1" viewBox="0 0 64 64" xmlns="http://www.w3.org/2000/svg" xmlns:xlink="http://www.w3.org/1999/xlink"><!--Generated by IJSVG (https://github.com/iconjar/IJSVG)--><path d="M50.236,28.685l-29.938,-19.956c-0.754,-0.484 -1.527,-0.729 -2.298,-0.729c-2.206,0 -4,1.794 -4,4v40c0,2.206 1.794,4 4,4c0.771,0 1.544,-0.245 2.314,-0.738l29.929,-19.949c1.1,-0.746 1.756,-1.984 1.756,-3.312c0.001,-1.33 -0.656,-2.568 -1.763,-3.316v0Zm-1.109,4.966l-29.906,19.937c-0.434,0.277 -0.833,0.412 -1.221,0.412c-1.103,0 -2,-0.897 -2,-2v-40c0,-1.103 0.897,-2 2,-2c0.388,0 0.787,0.135 1.205,0.402l29.917,19.941c0.55,0.373 0.878,0.992 0.878,1.656c0,0.664 -0.329,1.284 -0.873,1.652v0Z" fill-rule="evenodd" fill="#000" stroke="none"></path></svg>