<?xml version="1.0" encoding="UTF-8"?><svg version="1.1" viewBox="0 0 64 64" xmlns="http://www.w3.org/2000/svg" xmlns:xlink="http://www.w3.org/1999/xlink"><!--Generated by IJSVG (https://github.com/iconjar/IJSVG)--><g fill-rule="evenodd" fill="#000" stroke="none"><path d="M49.4142,26.5858c0.781049,0.781049 0.781049,2.04738 0,2.82843c-0.781049,0.781049 -2.04738,0.781049 -2.82843,0c-0.781049,-0.781049 -0.781049,-2.04738 0,-2.82843c0.781049,-0.781049 2.04738,-0.781049 2.82843,0"></path><path d="M59,26h-4.139c-0.823,-2.093 -2.087,-4.053 -3.703,-5.743l5.065,-5.065c0.058,-0.051 0.111,-0.107 0.157,-0.172c0.32,-0.442 0.225,-1.061 -0.212,-1.388c-0.015,-0.012 -0.03,-0.022 -0.045,-0.032c-1.509,-1.047 -3.28,-1.6 -5.123,-1.6c-2.798,0 -5.394,1.279 -7.095,3.46c-2.496,-0.969 -5.151,-1.46 -7.905,-1.46c-10.276,0 -18.759,7.014 -19.869,16h-3.131c-0.344,0 -0.68,-0.035 -1.004,-0.102c1.239,-1.264 2.004,-2.993 2.004,-4.898c0,-2.757 -1.794,-5 -4,-5c-2.206,0 -4,2.243 -4,5c0,1.905 0.765,3.635 2.004,4.898c-0.324,0.067 -0.66,0.102 -1.004,0.102c-1.654,0 -3,-1.794 -3,-4c0,-0.553 -0.448,-1 -1,-1c-0.552,0 -1,0.447 -1,1c0,3.309 2.243,6 5,6c1.073,0 2.09,-0.243 3,-0.676c0.91,0.433 1.927,0.676 3,0.676h3c0,4.523 1.852,8.812 5.227,12.134l-1.181,6.692c-0.146,0.823 0.06,1.641 0.563,2.241c0.497,0.593 1.251,0.933 2.069,0.933h3c1.591,0 3.057,-1.241 3.337,-2.826l0.384,-2.176c4.228,1.33 8.978,1.33 13.2,-0.001l0.384,2.177c0.28,1.585 1.746,2.826 3.337,2.826h3c0.817,0 1.572,-0.34 2.069,-0.933c0.503,-0.601 0.709,-1.418 0.563,-2.241l-1.181,-6.689c1.801,-1.777 3.201,-3.879 4.088,-6.137h4.141c1.654,0 3,-1.346 3,-3v-6c0,-1.654 -1.346,-3 -3,-3v0Zm-49,2.998c-1.214,-0.913 -2,-2.365 -2,-3.998c0,-1.626 0.916,-3 2,-3c1.084,0 2,1.374 2,3c0,1.633 -0.786,3.085 -2,3.998v0Zm50,6.002c0,0.552 -0.449,1 -1,1h-4.836c-0.427,0 -0.807,0.271 -0.946,0.676c-0.813,2.369 -2.267,4.574 -4.204,6.376c-0.248,0.231 -0.363,0.572 -0.304,0.906l1.273,7.216c0.043,0.244 -0.001,0.46 -0.126,0.608c-0.12,0.143 -0.305,0.218 -0.536,0.218h-3c-0.618,0 -1.257,-0.549 -1.368,-1.174l-0.588,-3.331c-0.052,-0.293 -0.231,-0.548 -0.49,-0.695c-0.153,-0.087 -0.323,-0.131 -0.495,-0.131c-0.12,0 -0.24,0.021 -0.354,0.064c-2.22,0.841 -4.584,1.267 -7.027,1.267c-2.439,0 -4.802,-0.426 -6.934,-1.226c-0.282,-0.142 -0.615,-0.142 -0.897,0.001c-0.282,0.143 -0.48,0.409 -0.535,0.72l-0.588,3.331c-0.11,0.625 -0.75,1.174 -1.368,1.174h-3c-0.231,0 -0.417,-0.075 -0.536,-0.218c-0.125,-0.148 -0.169,-0.364 -0.126,-0.608l1.273,-7.219c0.059,-0.334 -0.056,-0.675 -0.304,-0.906c-3.213,-2.989 -4.984,-6.913 -4.984,-11.049c0,-8.822 8.075,-16 18,-16c2.758,0 5.404,0.54 7.864,1.605c0.45,0.195 0.975,0.034 1.239,-0.378c1.295,-2.021 3.5,-3.228 5.896,-3.228c1.027,0 2.026,0.221 2.94,0.646l-4.907,4.907c-0.191,0.191 -0.297,0.452 -0.293,0.724c0.004,0.271 0.119,0.528 0.316,0.713c1.918,1.797 3.358,3.989 4.165,6.343c0.15,0.438 0.584,0.715 1.035,0.668h4.745c0.551,0 1,0.448 1,1v6v0Z"></path></g></svg>